<?xml version="1.0" encoding="UTF-8" standalone="no"?><!DOCTYPE svg PUBLIC "-//W3C//DTD SVG 1.1//EN" "http://www.w3.org/Graphics/SVG/1.1/DTD/svg11.dtd"><svg width="100%" height="100%" viewBox="0 0 19 23" version="1.1" xmlns="http://www.w3.org/2000/svg" xmlns:xlink="http://www.w3.org/1999/xlink" xml:space="preserve" xmlns:serif="http://www.serif.com/" style="fill-rule:evenodd;clip-rule:evenodd;stroke-linejoin:round;stroke-miterlimit:2;"><path d="M11.191,8.714c-0,0.297 0.133,0.58 0.362,0.769c0.229,0.19 0.532,0.268 0.824,0.212c1.454,-0.196 3.382,-0.052 5.811,0.443c0.141,0.029 0.242,0.152 0.242,0.296c-0,0.337 -0,0.947 -0,1.338c-0,0.09 -0.04,0.175 -0.109,0.232c-0.069,0.057 -0.16,0.081 -0.248,0.065c-4.239,-0.79 -6.702,-0.644 -6.882,0.823l-0,0.475c0.094,1.19 0.814,1.142 1.967,1.322c0.629,0.098 3.007,0.324 4.491,1.136c0.834,0.456 1.129,1.404 1.149,2.493c0.073,3.932 -3.86,4.464 -9.448,3.255c-0.139,-0.03 -0.238,-0.153 -0.238,-0.295c0,-0.339 0,-0.956 0,-1.35c0,-0.09 0.04,-0.174 0.109,-0.232c0.068,-0.057 0.159,-0.081 0.247,-0.065c5.027,0.913 7.702,0.758 6.908,-1.73c-0.338,-1.058 -3.354,-1.173 -4.407,-1.324c-1.819,-0.262 -2.951,-1.311 -3.082,-2.446c-0,-0 -0.022,-0.927 -0,-1.213l-0,-4.567c-0.18,-3.072 -2.546,-3.354 -5.96,-1.958c-0.376,0.153 -0.621,0.519 -0.621,0.925c-0.002,2.059 -0.002,8.257 -0.002,8.257c-0,0.167 -0.135,0.302 -0.302,0.302l-1.7,0c-0.167,0 -0.302,-0.135 -0.302,-0.302l0,-15.273c-0,-0.08 0.032,-0.157 0.088,-0.214c0.057,-0.056 0.134,-0.088 0.214,-0.088l1.678,0c0.167,-0 0.302,0.135 0.302,0.302l0,3.046c0,0.34 0.173,0.656 0.458,0.84c0.285,0.184 0.644,0.21 0.953,0.071c4.092,-1.898 7.349,-0.421 7.498,3.455c-0,0 -0,0.483 -0,1Z" style="fill:#f3b45d;"/></svg>